<svg width="30" height="30" viewBox="0 0 30 30" fill="none" xmlns="http://www.w3.org/2000/svg">
<g clip-path="url(#clip0_71_51)">
<path d="M9.14603 0.399412L22.7824 14.0361C23.0381 14.2918 23.1818 14.6387 23.1818 15.0003C23.1818 15.362 23.038 15.7089 22.7823 15.9646L9.14594 29.6006C8.6134 30.1331 7.75003 30.1331 7.21749 29.6006C6.68503 29.0681 6.68494 28.2047 7.21749 27.6721L19.8896 15.0003L7.21749 2.32786C6.95122 2.06159 6.81813 1.71259 6.81813 1.36359C6.81813 1.01459 6.95122 0.665593 7.21758 0.39932C7.75013 -0.133134 8.61349 -0.133134 9.14603 0.399412Z" fill="black"/>
</g>
<defs>
<clipPath id="clip0_71_51">
<rect width="30" height="30" fill="white" transform="matrix(4.37114e-08 -1 -1 -4.37114e-08 30 30)"/>
</clipPath>
</defs>
</svg>
