<svg width="32" height="32" viewBox="0 0 32 32" fill="none" xmlns="http://www.w3.org/2000/svg">
<path d="M22 1H9V3H22V1Z" fill="#D7A100"/>
<path d="M24.598 12.998C22.318 11.098 21 8.284 21 5.316V4H10V5.316C10 8.284 8.682 11.098 6.402 12.998L4 15L15 31V19.95C13.859 19.718 13 18.71 13 17.5C13 16.119 14.119 15 15.5 15C16.881 15 18 16.119 18 17.5C18 18.709 17.141 19.718 16 19.95V31L27 15L24.598 12.998Z" fill="#D7A100"/>
<path d="M22 1H9V3H22V1Z" fill="#D7A100"/>
<path d="M24.598 12.998C22.318 11.098 21 8.284 21 5.316V4H10V5.316C10 8.284 8.682 11.098 6.402 12.998L4 15L15 31V19.95C13.859 19.718 13 18.71 13 17.5C13 16.119 14.119 15 15.5 15C16.881 15 18 16.119 18 17.5C18 18.709 17.141 19.718 16 19.95V31L27 15L24.598 12.998Z" fill="#D7A100"/>
</svg>
